<?xml version="1.0" standalone="no"?>
<!DOCTYPE svg PUBLIC "-//W3C//DTD SVG 20010904//EN"
 "http://www.w3.org/TR/2001/REC-SVG-20010904/DTD/svg10.dtd">
<svg version="1.0" xmlns="http://www.w3.org/2000/svg"
 width="512.000000pt" height="512.000000pt" viewBox="0 0 512.000000 512.000000"
 preserveAspectRatio="xMidYMid meet">
<metadata>
Created by potrace 1.11, written by Peter Selinger 2001-2013
</metadata>
<g transform="translate(0.000000,512.000000) scale(0.100000,-0.100000)"
fill="#000000" stroke="none">
<path d="M3059 4426 c-2 -2 -35 -6 -74 -10 -38 -3 -83 -8 -100 -11 -16 -2 -43
-7 -60 -9 -157 -22 -408 -102 -583 -187 -558 -270 -988 -751 -1242 -1388 -50
-126 -118 -351 -134 -441 -3 -14 -9 -50 -15 -80 -6 -30 -13 -73 -17 -95 -10
-69 -12 -377 -3 -440 5 -33 11 -71 13 -85 8 -52 47 -192 76 -270 85 -232 239
-428 434 -555 192 -125 314 -155 611 -150 105 2 199 6 210 8 11 3 47 8 80 12
33 3 78 10 100 15 22 5 56 12 75 15 151 26 386 115 538 204 65 38 175 125 239
189 93 93 226 273 255 344 57 142 -29 268 -232 339 -59 21 -86 23 -283 25
-167 2 -231 7 -274 19 -200 58 -355 215 -355 360 0 89 130 396 216 510 68 90
212 231 286 280 94 63 150 81 343 115 95 17 194 37 220 45 134 43 214 105 252
198 17 41 22 45 79 62 52 16 71 28 131 89 245 249 227 666 -35 808 -52 28
-144 55 -216 64 -27 3 -60 8 -74 10 -33 6 -456 15 -461 10z"/>
</g>
</svg>
