<?xml version="1.0" encoding="UTF-8"?>
<svg viewBox="0 0 491 105" version="1.1" xmlns="http://www.w3.org/2000/svg" xmlns:xlink="http://www.w3.org/1999/xlink">
    <!-- Generator: Sketch 64 (93537) - https://sketch.com -->
    <title>chopalong</title>
    <desc>Created with Sketch.</desc>
    <g id="Page-1" stroke="none" stroke-width="1" fill="none" fill-rule="evenodd">
        <g id="logo/2" fill="#FFFFFF" fill-rule="nonzero">
            <path d="M12.81684,79.5459248 C14.9624111,79.6998334 17.1079821,79.6228791 19.2535532,79.3150619 C26.4871929,78.3916104 31.6365635,75.4673473 34.701665,70.5422726 C36.2955178,68.6953695 36.4181219,67.0639385 35.0694772,65.6479795 C34.4564569,65.0323452 33.5522519,64.5552286 32.3568623,64.2166297 C31.1614727,63.8780308 29.5829454,63.7856857 27.6212804,63.9395942 C25.6596155,64.0935028 23.8512055,63.5240411 22.1960507,62.2312089 C20.786104,61.0615037 20.1424327,59.7994533 20.2650367,58.4450577 C20.816755,56.4750279 21.4604263,54.8128151 22.1960507,53.4584196 C22.6251649,52.6580949 23.1922087,51.8423794 23.8971821,51.0112731 C24.6021554,50.1801667 25.4757094,49.3336695 26.5178439,48.4717814 C27.5599784,47.6098933 28.6787405,47.0712133 29.8741301,46.8557413 C31.0695197,46.6402693 32.2189328,46.4401881 33.3223693,46.2554978 C34.4258059,46.0708075 35.4372894,45.7322086 36.3568198,45.2397011 C37.2763503,44.7471937 37.9506726,43.8545239 38.3797869,42.5616917 C39.5445254,42.5001283 40.6019855,41.8383214 41.5521669,40.576271 C42.5023484,39.3142206 43.0693922,37.8982616 43.2532983,36.328394 C43.4372044,34.7585265 43.1153687,33.281004 42.2877913,31.8958268 C41.4602139,30.5106495 39.8510356,29.6641523 37.4602564,29.3563351 C29.0618782,28.3097567 21.7056345,29.9411877 15.3915253,34.2506281 C9.62913438,38.1291245 5.30734121,43.6698336 2.42614576,50.8727553 C-0.577653752,58.5681846 -0.79221086,65.3093807 1.78247444,71.0963435 C2.94721302,73.6204443 4.54106582,75.6212559 6.56403284,77.0987783 C8.58699986,78.5763007 10.6712689,79.3920162 12.81684,79.5459248 Z M50.54824,77.0064331 C53.7359456,79.0995899 57.0769063,79.5920974 60.571122,78.4839556 C60.9389342,78.4839556 61.7052096,78.1453567 62.8699482,77.4681589 L62.8699482,77.4681589 L64.3411969,76.7293977 C64.8316132,76.483144 65.3526804,76.1753268 65.9043987,75.8059462 C66.456117,75.4365656 66.9771842,75.2210936 67.4676005,75.1595301 C67.9580167,75.0979667 68.3564799,74.9902307 68.6629901,74.8363221 C68.9695002,74.6824135 69.3679634,73.2510637 69.8583797,70.5422726 C71.3296284,67.1562837 73.1380383,64.3859291 75.2836094,62.2312089 C76.448348,61.0615037 78.5632681,59.6763264 81.6283696,58.0756771 C81.4444635,59.1222555 81.3218595,60.3843059 81.2605574,61.8618283 C81.1992554,63.3393508 81.6896716,66.5098676 82.7318062,71.3733789 C83.4061285,72.4199573 83.8965448,73.2048911 84.2030549,73.7281803 C84.5095651,74.2514695 85.1992129,74.9440581 86.2719985,75.8059462 C87.344784,76.6678343 88.6474521,77.3912046 90.1800029,77.9760572 C91.7125537,78.5609099 93.1684769,78.8379453 94.5477726,78.8071636 C95.9270683,78.7763819 97.0764814,78.3454378 97.9960119,77.5143315 C98.9155423,76.6832251 99.3753075,75.282657 99.3753075,73.3126271 C98.5783811,70.9116532 98.1799179,68.0797352 98.1799179,64.8168732 C98.0573139,63.093097 98.2565455,61.2000214 98.7776127,59.1376464 C99.29868,57.0752713 99.7431197,55.0282872 100.110932,52.9966938 C101.030462,48.0716191 100.264187,44.377813 97.8121058,41.9152757 C94.5630981,38.6524137 90.9462783,37.3595816 86.9616463,38.0367793 C85.1225854,38.3445965 83.390803,39.0064034 81.7662992,40.0222001 C80.1417954,41.0379967 78.8238017,42.0691843 77.8123182,43.1157626 C76.8008347,44.162341 76.0345593,45.1011834 75.513492,45.9322898 C74.9924248,46.7633961 74.3334279,47.4867665 73.5365015,48.1024008 C74.1495219,45.5167366 74.7318911,43.3466255 75.2836094,41.5920677 C75.8353277,39.8375098 76.2337909,38.5292868 76.478999,37.6673987 L76.478999,37.6673987 L77.5824356,34.4353184 C78.0728518,32.8962326 78.6092446,31.218629 79.1916139,29.4025077 C79.7739832,27.5863864 80.3257015,25.8933919 80.8467687,24.3235244 C81.367836,22.7536568 81.7662992,21.645515 82.0421583,20.9990989 C82.3180175,20.3526829 82.7471317,19.3522771 83.329501,17.9978815 C83.9118703,16.643486 84.5248906,15.1813544 85.1685619,13.6114868 C85.8122332,12.0416193 86.4559045,10.4871425 87.0995759,8.94805669 C87.7432472,7.40897084 88.2489889,6.08535701 88.6168011,4.97721519 C88.371593,2.63780469 86.409928,1.19106399 82.7318062,0.636993084 C81.1992554,0.452302781 79.5747516,0.483084499 77.8582947,0.729338235 C76.1418379,0.975591972 74.6246126,1.45270859 73.3066189,2.16068808 C71.9886253,2.86866757 71.0077928,3.8229008 70.3641214,5.02338777 C69.7204501,6.22387473 69.7051246,7.62444286 70.3181449,9.22509215 C69.8277287,10.0254168 68.9388492,11.5337209 67.6515066,13.7500046 C67.0384863,14.8581464 66.425466,15.9047248 65.8124457,16.8897397 C63.2377604,21.0760532 60.540471,26.7706709 57.7205776,33.9735927 C53.1229253,45.793772 49.5061055,57.3984794 46.8701181,68.7877147 C46.5023059,70.4499274 46.686212,72.0044041 47.4218364,73.4511448 C48.1574608,74.8978855 49.1995953,76.0829816 50.54824,77.0064331 Z M127.589567,79.9153054 C129.214071,79.9460871 131.007155,79.9306963 132.96882,79.8691328 C134.930485,79.8075694 137.137359,79.5151431 139.58944,78.9918539 C142.041521,78.4685647 144.370998,77.2219052 146.577871,75.2518753 C151.420732,71.0039983 154.853645,65.3401624 156.876612,58.2603674 C158.776975,51.8577703 158.991533,45.9476806 157.520284,40.5300984 C156.784659,36.8362924 154.608437,34.0043744 150.991618,32.0343445 C149.336463,31.110893 147.420774,30.4644769 145.244552,30.0950963 C143.06833,29.7257157 141.213944,29.6641523 139.681393,29.910406 C138.148842,30.1566598 136.953452,30.3105683 136.095224,30.3721318 C132.784914,30.4952586 130.455437,31.9419993 129.106793,34.7123539 C128.73898,34.7123539 128.371168,34.6815722 128.003356,34.6200087 C126.102993,34.1275013 124.50914,34.3429733 123.221798,35.2664248 C120.340602,37.2364547 117.71994,40.8533064 115.359812,46.1169801 C112.999684,51.3806537 111.697016,56.5981547 111.451808,61.7694832 C111.083995,67.6180094 112.156781,71.9274498 114.670164,74.6978044 C116.815735,77.1603417 119.543676,78.7302093 122.853985,79.4074071 C124.386536,79.7152242 125.965063,79.8845237 127.589567,79.9153054 Z M132.784914,68.6953695 C131.620176,69.0647501 129.811766,69.1263136 127.359685,68.8800598 C126.685362,67.2794105 126.685362,65.6941521 127.359685,64.1242845 C128.034007,62.554417 128.892235,61.030722 129.93437,59.5531996 C129.93437,59.6763264 130.363484,59.4146818 131.221713,58.7682658 C132.079941,58.1218497 132.769589,57.4138702 133.290656,56.6443273 C133.811723,55.8747844 134.409418,55.151414 135.083741,54.4742162 C136.432385,54.5357797 137.872983,54.3203077 139.405534,53.8278002 C139.834648,57.2137891 139.497487,60.2303973 138.39405,62.877625 C137.842332,64.293584 137.060731,65.5248527 136.049248,66.5714311 C135.037764,67.6180094 133.949653,68.3259889 132.784914,68.6953695 Z M164.907179,104.479116 C166.623635,105.063968 168.370743,105.156313 170.148502,104.756151 C171.926261,104.355989 173.428161,103.755745 174.654201,102.955421 C176.43196,99.6925586 177.857233,96.2603972 178.930018,92.6589363 C180.002804,89.0574754 181.152217,85.5021871 182.378257,81.9930713 C182.74607,83.0396497 183.420392,83.8399743 184.401224,84.3940452 C185.382057,84.9481161 186.868631,85.3636693 188.860947,85.6407048 C190.853263,85.9177402 193.167415,85.5329688 195.803402,84.4863904 C200.217148,82.7626142 203.803317,80.4232037 206.561908,77.4681589 C209.3205,74.5131141 211.558024,71.3425972 213.274481,67.9566083 C214.990938,64.5706194 216.27828,61.138458 217.136509,57.660124 C217.994737,54.1817899 218.730362,50.9958822 219.343382,48.1024008 C220.446818,42.8079455 220.20161,38.3445965 218.607758,34.7123539 C217.688227,32.6807606 216.293606,31.0185478 214.423894,29.7257157 C212.554182,28.4328836 210.316658,27.848031 207.711322,27.9711578 C205.105985,28.0942847 202.914438,28.3097567 201.136679,28.6175739 C195.680798,29.5410254 191.420307,32.31138 188.355205,36.9286375 L188.355205,36.9286375 L186.608097,36.4669118 L186.332238,36.4669118 C184.922292,36.5284752 183.6656,36.6823838 182.562163,36.9286375 C181.458727,37.1748913 180.385941,37.8213073 179.343807,38.8678857 C178.853391,39.5450835 177.949186,41.4073773 176.631192,44.4547673 C175.313198,47.5021573 174.347691,50.3802479 173.734671,53.089039 L173.734671,53.089039 L173.734671,53.1813841 C173.182953,54.8435969 172.585258,56.7982359 171.941587,59.0453012 C171.297915,61.2923666 170.301757,64.2012388 168.953113,67.771918 C168.646602,68.6953695 168.340092,69.5726485 168.033582,70.4037548 C167.727072,71.2348612 167.037424,73.0355916 165.964639,75.8059462 C164.891853,78.5763007 163.497232,82.5163605 161.780775,87.6261255 C160.616036,91.0736778 160.033667,93.997941 160.033667,96.3989149 C160.033667,98.1842545 160.416805,99.8310764 161.18308,101.33938 C161.949356,102.847685 163.190722,103.894263 164.907179,104.479116 Z M188.631064,69.4341307 C188.324554,68.8800598 187.864789,68.2952072 187.251769,67.6795729 C187.926091,66.0789236 188.539111,64.4474926 189.09083,62.7852799 C189.642548,61.1230671 190.224917,59.4916361 190.837938,57.8909868 L190.837938,57.8909868 L191.665515,55.9517387 C193.381972,54.8435969 194.608012,53.6431099 195.343637,52.3502778 C195.466241,51.242136 195.680798,50.3956387 195.987308,49.8107861 C196.293818,49.2259335 196.784235,48.5333449 197.458557,47.7330202 C197.213349,47.9177105 197.198023,47.9023197 197.41258,47.6868476 C197.627137,47.4713756 197.933648,47.2559036 198.332111,47.0404316 C198.730574,46.8249596 199.129037,46.7172235 199.5275,46.7172235 C199.925964,46.7172235 200.217148,46.994259 200.401054,47.5483299 C200.58496,48.1024008 200.508333,49.3952329 200.171172,51.4268263 C199.834011,53.4584196 199.113712,55.4900129 198.010275,57.5216062 C195.190382,62.446681 192.063978,66.4175225 188.631064,69.4341307 Z M240.247374,78.8071636 C242.883362,79.0226356 245.519349,78.8995087 248.155336,78.437783 C250.791324,77.9760572 252.829616,77.3912046 254.270214,76.6832251 C255.710812,75.9752456 256.676319,75.4211747 257.166735,75.0210124 C257.657151,74.6208501 258.147567,73.9590432 258.637984,73.0355916 C258.208869,74.8209312 259.251004,76.1445451 261.764387,77.0064331 C264.155166,77.8067578 266.545946,77.8375395 268.936725,77.0987783 C271.695316,76.2984537 273.01331,74.8209312 272.890706,72.666211 C273.01331,70.6346177 273.779585,64.3243657 275.189532,53.735455 C275.925156,48.5025631 276.231667,44.4085948 276.109062,41.4535499 C275.74125,39.2988297 275.220183,37.6981804 274.545861,36.6516021 C273.503726,35.1125162 272.185733,34.6507905 270.59188,35.2664248 C270.59188,35.2048614 270.530578,35.1740796 270.407974,35.1740796 L270.407974,35.1740796 L270.040161,35.0817345 C270.040161,33.4810852 268.936725,32.2190348 266.729852,31.2955833 C265.871623,30.9262027 264.967418,30.6491672 264.017237,30.4644769 C263.067055,30.2797866 262.178176,30.0950963 261.350599,29.910406 C260.523021,29.7257157 259.557514,29.694934 258.454078,29.8180609 C255.20507,30.1874415 251.833458,31.326365 248.339243,33.2348315 C243.680288,35.8204957 239.51175,39.0833577 235.833628,43.0234175 C232.645923,46.4709698 230.43905,50.4418113 229.213009,54.935942 C227.43525,61.7694832 227.251344,67.4025374 228.661291,71.8351047 C229.396915,74.1129517 230.852838,75.7905553 233.02906,76.8679154 C235.205282,77.9452755 237.611387,78.5916916 240.247374,78.8071636 Z M250.546116,64.9092183 C249.258773,66.5714311 247.205155,67.0331568 244.385262,66.2943956 C241.136254,65.0631269 240.952348,62.8160616 243.833543,59.5531996 C246.469531,56.5981547 250.270256,54.1048356 255.235721,52.0732423 C254.745305,53.6123282 254.362167,55.0282872 254.086308,56.3211193 C253.810449,57.6139514 253.457962,58.6913115 253.028848,59.5531996 C253.212754,59.3069458 253.39666,59.0299104 253.580566,58.7220932 C252.967546,59.8917985 252.446479,61.030722 252.017364,62.1388638 C251.58825,63.2470056 251.097834,64.1704571 250.546116,64.9092183 Z M287.633844,78.8533362 C287.756448,81.1311832 289.227697,81.9622896 292.047591,81.3466553 C293.273631,81.0388381 294.560974,80.500158 295.909618,79.7306151 C297.258263,78.9610722 298.423002,78.1453567 299.403834,77.2834686 C300.384667,76.4215805 301.120291,75.498129 301.610707,74.5131141 C302.101124,73.5280991 302.530238,72.3891756 302.89805,71.0963435 C303.327164,69.8035113 303.725627,68.3259889 304.09344,66.6637762 C304.461252,65.0015635 304.951668,63.0623153 305.564688,60.8460317 C310.775361,41.7613671 316.629705,24.4928238 323.12772,9.04040184 C323.250324,7.74756973 322.606653,6.30082903 321.196706,4.70017974 C320.644988,4.02298196 320.154572,3.36117504 319.725457,2.71475899 C319.296343,2.06834293 319.112437,1.34497258 319.173739,0.544647933 C316.047336,-0.501930448 313.411348,-0.0402046917 311.265777,1.9298252 C310.407549,2.66858641 309.702575,3.48430191 309.150857,4.37697171 C308.599139,5.2696415 308.108723,5.99301185 307.679608,6.54708276 C301.242895,17.8131912 295.848316,30.4644769 291.495872,44.5009399 C289.656811,50.2879027 288.154912,55.5977489 286.990173,60.4304785 C285.825434,65.2632081 284.752649,69.3725673 283.771816,72.7585562 C283.220098,75.2210936 283.58791,76.7293977 284.875253,77.2834686 C285.365669,77.5297223 285.902062,77.6990218 286.484431,77.7913669 C287.066801,77.8837121 287.449938,78.2377018 287.633844,78.8533362 Z M336.813399,79.9153054 C338.437902,79.9460871 340.230987,79.9306963 342.192652,79.8691328 C344.154317,79.8075694 346.36119,79.5151431 348.813271,78.9918539 C351.265352,78.4685647 353.594829,77.2219052 355.801703,75.2518753 C360.644563,71.0039983 364.077477,65.3401624 366.100444,58.2603674 C368.000807,51.8577703 368.215364,45.9476806 366.744115,40.5300984 C366.008491,36.8362924 363.832269,34.0043744 360.215449,32.0343445 C358.560294,31.110893 356.644606,30.4644769 354.468383,30.0950963 C352.292161,29.7257157 350.437775,29.6641523 348.905224,29.910406 C347.372673,30.1566598 346.177284,30.3105683 345.319055,30.3721318 C342.008746,30.4952586 339.679268,31.9419993 338.330624,34.7123539 C337.962812,34.7123539 337.594999,34.6815722 337.227187,34.6200087 C335.326824,34.1275013 333.732971,34.3429733 332.445629,35.2664248 C329.564433,37.2364547 326.943772,40.8533064 324.583643,46.1169801 C322.223515,51.3806537 320.920847,56.5981547 320.675639,61.7694832 C320.307827,67.6180094 321.380612,71.9274498 323.893996,74.6978044 C326.039567,77.1603417 328.767507,78.7302093 332.077817,79.4074071 C333.610367,79.7152242 335.188895,79.8845237 336.813399,79.9153054 Z M342.008746,68.6953695 C340.844007,69.0647501 339.035597,69.1263136 336.583516,68.8800598 C335.909194,67.2794105 335.909194,65.6941521 336.583516,64.1242845 C337.257838,62.554417 338.116067,61.030722 339.158201,59.5531996 C339.158201,59.6763264 339.587315,59.4146818 340.445544,58.7682658 C341.303772,58.1218497 341.99342,57.4138702 342.514487,56.6443273 C343.035555,55.8747844 343.633249,55.151414 344.307572,54.4742162 C345.656216,54.5357797 347.096814,54.3203077 348.629365,53.8278002 C349.058479,57.2137891 348.721318,60.2303973 347.617881,62.877625 C347.066163,64.293584 346.284562,65.5248527 345.273079,66.5714311 C344.261595,67.6180094 343.173484,68.3259889 342.008746,68.6953695 Z M377.073507,79.7767877 C380.567723,81.2543101 384.491053,81.4390004 388.843497,80.3308586 C391.540787,79.6536608 393.012035,78.6070824 393.257243,77.1911234 C393.379848,76.5139257 393.533103,76.1137633 393.717009,75.9906365 C393.900915,75.8675096 394.130797,75.7597736 394.406657,75.6674285 C394.682516,75.5750833 395.019677,75.390393 395.41814,75.1133575 C395.816603,74.8363221 396.276368,74.2668603 396.797436,73.4049722 C397.318503,72.5430842 397.931523,71.4657241 398.636497,70.172892 C399.34147,68.8800598 400.107745,67.4794917 400.935323,65.9711876 C401.7629,64.4628834 402.605803,62.9391884 403.464032,61.4001026 C406.529133,55.7978301 408.613402,52.5965315 409.716839,51.7962069 C410.207255,50.8111919 411.034832,49.9493038 412.199571,49.2105426 C413.548216,48.410218 414.498397,48.3178728 415.050115,48.9335072 C415.724438,49.7338318 415.601834,51.7038617 414.682303,54.8435969 C413.701471,57.0598805 412.751289,59.7378899 411.831759,62.877625 C410.912228,66.0173601 409.74749,69.4956942 408.337543,73.3126271 C407.785825,74.9748398 408.153637,76.1907176 409.44098,76.9602606 C410.728322,77.7298035 412.368152,78.0376207 414.360468,77.8837121 C416.352784,77.7298035 418.375751,77.1603417 420.429369,76.1753268 C422.482987,75.1903118 424.000212,73.7743529 424.981044,71.9274498 C426.697501,69.5264759 427.954193,67.4641009 428.751119,65.7403247 C429.118931,64.8168732 429.53272,63.7856857 429.992485,62.6467621 C430.452251,61.5078386 431.111247,60.0149253 431.969476,58.1680223 C434.605463,50.9651005 435.678249,45.0242291 435.187833,40.3454081 C434.574812,34.804699 431.754919,31.5110553 426.728152,30.4644769 C422.866124,29.6641523 417.961962,30.1874415 412.015665,32.0343445 C406.375878,33.8196841 402.421897,36.0359677 400.153722,38.6831954 L400.153722,38.6831954 L400.153722,38.2214696 C400.153722,36.6823838 399.78591,35.4818968 399.050285,34.6200087 C397.640339,33.0193594 394.881747,33.0501412 390.774511,34.7123539 C389.977585,34.2814098 389.349239,34.2198464 388.889474,34.5276636 C388.429709,34.8354808 387.433551,36.1590946 385.901,38.4985051 C385.226677,39.6066469 383.78608,43.0541992 381.579207,48.841162 C375.326399,65.2785989 372.904969,74.9132764 374.314916,77.7451944 C374.989238,78.6070824 375.908769,79.2842802 377.073507,79.7767877 Z M446.988473,102.955421 C454.773831,104.987014 461.823565,104.217471 468.137674,100.646792 C471.141474,98.9845791 473.838763,96.7375138 476.229542,93.9055958 C478.620321,91.0736778 480.474708,88.2109782 481.792701,85.3174968 C483.110695,82.4240153 484.214132,80.0230414 485.103011,78.114575 C485.991891,76.2061085 486.773492,74.1437335 487.447814,71.9274498 C489.348177,65.2785989 489.74664,58.8760018 488.643203,52.7196584 C488.520599,51.7346434 488.489948,51.2113542 488.55125,51.1497908 C490.696821,48.5025631 491.432446,45.5167366 490.758124,42.1923111 C490.083801,38.8678857 488.428646,36.4669118 485.792659,34.9893893 C484.076202,34.9893893 482.696906,35.9436226 481.654772,37.852089 C479.999617,35.3279882 477.945999,33.6042121 475.493918,32.6807606 C473.470951,32.0651262 471.32538,31.8188725 469.057205,31.9419993 C464.336948,32.1882531 459.923202,34.0043744 455.815966,37.3903633 C449.808367,42.2538746 446.314151,48.8719437 445.333319,57.2445708 C445.088111,59.6455447 445.103436,62.0003461 445.379295,64.3089749 C445.655154,66.6176036 446.222198,68.6645878 447.080427,70.4499274 C447.938655,72.235267 449.072743,73.6820077 450.482689,74.7901495 C451.892636,75.8982913 453.471163,76.483144 455.218271,76.5447074 C456.965379,76.6062708 458.543906,76.6678343 459.953853,76.7293977 C464.919318,76.7909611 468.536137,75.3750021 470.804312,72.4815207 C469.394366,75.8059462 467.984419,78.4531738 466.574472,80.4232037 C463.999787,84.1785732 461.700961,86.5795472 459.677994,87.6261255 C458.513255,88.2417599 457.547748,88.7496582 456.781473,89.1498205 C456.015198,89.5499829 454.988389,89.9963177 453.701046,90.4888252 C452.413703,90.9813327 450.727897,91.0121144 448.643628,90.5811704 C446.804567,89.534592 445.272017,89.0728662 444.045976,89.1959931 C441.532593,89.4422468 440.061344,90.8274241 439.63223,93.3515249 C439.203116,95.3831182 439.693532,97.2915847 441.103479,99.0769243 C442.206915,100.554447 444.16858,101.847279 446.988473,102.955421 Z M460.689477,66.1558779 C459.647343,66.3097865 458.927044,66.0481419 458.528581,65.3709441 C458.130118,64.6937463 458.222071,63.86264 458.80444,62.877625 C459.386809,61.8926101 460.183736,60.9537677 461.195219,60.0610979 C462.206703,59.1684281 463.386767,58.4604486 464.735411,57.9371594 C466.084056,57.4138702 467.156842,57.2753525 467.953768,57.5216062 C468.750694,57.76786 469.302413,57.9371594 469.608923,58.0295046 C469.915433,58.1218497 470.221943,58.2295857 470.528453,58.3527126 C470.467151,58.4758395 470.4365,58.6297481 470.4365,58.8144384 C468.90395,61.1538489 466.789029,63.1546605 464.09174,64.8168732 C462.865699,65.5556344 461.731612,66.0019693 460.689477,66.1558779 Z" id="chopalong"></path>
        </g>
    </g>
</svg>